<mxfile host="app.diagrams.net" modified="2020-07-16T05:43:58.347Z" agent="5.0 (X11)" etag="CnczWvrFhd1v0WQw0nF1" version="13.4.4" type="github">
  <diagram id="FpRJt0wRXX8udmw2rHyh" name="Page-1">
    <mxGraphModel dx="2084" dy="469" grid="1" gridSize="10" guides="1" tooltips="1" connect="1" arrows="1" fold="1" page="1" pageScale="1" pageWidth="827" pageHeight="1169" math="0" shadow="1">
      <root>
        <mxCell id="0" />
        <mxCell id="1" parent="0" />
        <mxCell id="rMMRFrDlqJejkYLKrZz7-4" style="edgeStyle=orthogonalEdgeStyle;rounded=0;orthogonalLoop=1;jettySize=auto;html=1;exitX=0.5;exitY=1;exitDx=0;exitDy=0;" parent="1" source="rMMRFrDlqJejkYLKrZz7-2" edge="1">
          <mxGeometry relative="1" as="geometry">
            <mxPoint x="100" y="180" as="targetPoint" />
            <Array as="points">
              <mxPoint x="240" y="160" />
              <mxPoint x="100" y="160" />
            </Array>
          </mxGeometry>
        </mxCell>
        <mxCell id="6pK8oLAzssQNjTHqbSUo-2" style="edgeStyle=orthogonalEdgeStyle;rounded=0;orthogonalLoop=1;jettySize=auto;html=1;exitX=0.5;exitY=1;exitDx=0;exitDy=0;entryX=0.5;entryY=0;entryDx=0;entryDy=0;" edge="1" parent="1" source="rMMRFrDlqJejkYLKrZz7-2" target="rMMRFrDlqJejkYLKrZz7-7">
          <mxGeometry relative="1" as="geometry">
            <mxPoint x="480" y="170" as="targetPoint" />
            <Array as="points">
              <mxPoint x="240" y="160" />
              <mxPoint x="474" y="160" />
            </Array>
          </mxGeometry>
        </mxCell>
        <mxCell id="6pK8oLAzssQNjTHqbSUo-3" style="edgeStyle=orthogonalEdgeStyle;rounded=0;orthogonalLoop=1;jettySize=auto;html=1;exitX=0.5;exitY=1;exitDx=0;exitDy=0;entryX=0.5;entryY=0;entryDx=0;entryDy=0;" edge="1" parent="1" source="rMMRFrDlqJejkYLKrZz7-2" target="6pK8oLAzssQNjTHqbSUo-1">
          <mxGeometry relative="1" as="geometry">
            <mxPoint x="720" y="180" as="targetPoint" />
            <Array as="points">
              <mxPoint x="240" y="160" />
              <mxPoint x="800" y="160" />
            </Array>
          </mxGeometry>
        </mxCell>
        <mxCell id="rMMRFrDlqJejkYLKrZz7-2" value="Login" style="rounded=0;whiteSpace=wrap;html=1;" parent="1" vertex="1">
          <mxGeometry x="180" y="90" width="120" height="30" as="geometry" />
        </mxCell>
        <mxCell id="rMMRFrDlqJejkYLKrZz7-54" style="edgeStyle=orthogonalEdgeStyle;rounded=0;orthogonalLoop=1;jettySize=auto;html=1;exitX=0.5;exitY=1;exitDx=0;exitDy=0;entryX=0.5;entryY=0;entryDx=0;entryDy=0;" parent="1" source="rMMRFrDlqJejkYLKrZz7-6" target="rMMRFrDlqJejkYLKrZz7-50" edge="1">
          <mxGeometry relative="1" as="geometry" />
        </mxCell>
        <mxCell id="rMMRFrDlqJejkYLKrZz7-55" style="edgeStyle=orthogonalEdgeStyle;rounded=0;orthogonalLoop=1;jettySize=auto;html=1;exitX=0.5;exitY=1;exitDx=0;exitDy=0;entryX=0.5;entryY=0;entryDx=0;entryDy=0;" parent="1" source="rMMRFrDlqJejkYLKrZz7-6" target="rMMRFrDlqJejkYLKrZz7-51" edge="1">
          <mxGeometry relative="1" as="geometry" />
        </mxCell>
        <mxCell id="rMMRFrDlqJejkYLKrZz7-60" style="edgeStyle=orthogonalEdgeStyle;rounded=0;orthogonalLoop=1;jettySize=auto;html=1;exitX=0.5;exitY=1;exitDx=0;exitDy=0;" parent="1" source="rMMRFrDlqJejkYLKrZz7-6" target="rMMRFrDlqJejkYLKrZz7-56" edge="1">
          <mxGeometry relative="1" as="geometry" />
        </mxCell>
        <mxCell id="rMMRFrDlqJejkYLKrZz7-61" style="edgeStyle=orthogonalEdgeStyle;rounded=0;orthogonalLoop=1;jettySize=auto;html=1;exitX=0.5;exitY=1;exitDx=0;exitDy=0;" parent="1" source="rMMRFrDlqJejkYLKrZz7-6" target="rMMRFrDlqJejkYLKrZz7-52" edge="1">
          <mxGeometry relative="1" as="geometry" />
        </mxCell>
        <mxCell id="rMMRFrDlqJejkYLKrZz7-62" style="edgeStyle=orthogonalEdgeStyle;rounded=0;orthogonalLoop=1;jettySize=auto;html=1;exitX=0.5;exitY=1;exitDx=0;exitDy=0;entryX=0.5;entryY=0;entryDx=0;entryDy=0;" parent="1" source="rMMRFrDlqJejkYLKrZz7-6" target="rMMRFrDlqJejkYLKrZz7-53" edge="1">
          <mxGeometry relative="1" as="geometry" />
        </mxCell>
        <mxCell id="rMMRFrDlqJejkYLKrZz7-6" value="Listar" style="rounded=0;whiteSpace=wrap;html=1;" parent="1" vertex="1">
          <mxGeometry x="40" y="180" width="120" height="40" as="geometry" />
        </mxCell>
        <mxCell id="rMMRFrDlqJejkYLKrZz7-12" style="edgeStyle=orthogonalEdgeStyle;rounded=0;orthogonalLoop=1;jettySize=auto;html=1;exitX=0.5;exitY=1;exitDx=0;exitDy=0;entryX=0.5;entryY=0;entryDx=0;entryDy=0;" parent="1" source="rMMRFrDlqJejkYLKrZz7-7" target="rMMRFrDlqJejkYLKrZz7-11" edge="1">
          <mxGeometry relative="1" as="geometry" />
        </mxCell>
        <mxCell id="rMMRFrDlqJejkYLKrZz7-16" style="edgeStyle=orthogonalEdgeStyle;rounded=0;orthogonalLoop=1;jettySize=auto;html=1;exitX=0.5;exitY=1;exitDx=0;exitDy=0;" parent="1" source="rMMRFrDlqJejkYLKrZz7-7" target="rMMRFrDlqJejkYLKrZz7-13" edge="1">
          <mxGeometry relative="1" as="geometry" />
        </mxCell>
        <mxCell id="rMMRFrDlqJejkYLKrZz7-17" style="edgeStyle=orthogonalEdgeStyle;rounded=0;orthogonalLoop=1;jettySize=auto;html=1;exitX=0.5;exitY=1;exitDx=0;exitDy=0;entryX=0.5;entryY=0;entryDx=0;entryDy=0;" parent="1" source="rMMRFrDlqJejkYLKrZz7-7" target="rMMRFrDlqJejkYLKrZz7-14" edge="1">
          <mxGeometry relative="1" as="geometry" />
        </mxCell>
        <mxCell id="rMMRFrDlqJejkYLKrZz7-18" style="edgeStyle=orthogonalEdgeStyle;rounded=0;orthogonalLoop=1;jettySize=auto;html=1;exitX=0.5;exitY=1;exitDx=0;exitDy=0;" parent="1" source="rMMRFrDlqJejkYLKrZz7-7" target="rMMRFrDlqJejkYLKrZz7-15" edge="1">
          <mxGeometry relative="1" as="geometry" />
        </mxCell>
        <mxCell id="rMMRFrDlqJejkYLKrZz7-21" style="edgeStyle=orthogonalEdgeStyle;rounded=0;orthogonalLoop=1;jettySize=auto;html=1;exitX=0.5;exitY=1;exitDx=0;exitDy=0;" parent="1" source="rMMRFrDlqJejkYLKrZz7-7" target="rMMRFrDlqJejkYLKrZz7-20" edge="1">
          <mxGeometry relative="1" as="geometry" />
        </mxCell>
        <mxCell id="rMMRFrDlqJejkYLKrZz7-25" style="edgeStyle=orthogonalEdgeStyle;rounded=0;orthogonalLoop=1;jettySize=auto;html=1;exitX=0.5;exitY=1;exitDx=0;exitDy=0;entryX=0.5;entryY=0;entryDx=0;entryDy=0;" parent="1" source="rMMRFrDlqJejkYLKrZz7-7" target="rMMRFrDlqJejkYLKrZz7-22" edge="1">
          <mxGeometry relative="1" as="geometry" />
        </mxCell>
        <mxCell id="rMMRFrDlqJejkYLKrZz7-7" value="Cadastrar" style="rounded=0;whiteSpace=wrap;html=1;" parent="1" vertex="1">
          <mxGeometry x="414" y="180" width="120" height="40" as="geometry" />
        </mxCell>
        <mxCell id="rMMRFrDlqJejkYLKrZz7-11" value="Jogos" style="rounded=0;whiteSpace=wrap;html=1;" parent="1" vertex="1">
          <mxGeometry x="600" y="270" width="70" height="40" as="geometry" />
        </mxCell>
        <mxCell id="rMMRFrDlqJejkYLKrZz7-13" value="Tipo Manutenção" style="rounded=0;whiteSpace=wrap;html=1;" parent="1" vertex="1">
          <mxGeometry x="520" y="270" width="70" height="40" as="geometry" />
        </mxCell>
        <mxCell id="rMMRFrDlqJejkYLKrZz7-30" style="edgeStyle=orthogonalEdgeStyle;rounded=0;orthogonalLoop=1;jettySize=auto;html=1;exitX=0.5;exitY=1;exitDx=0;exitDy=0;entryX=0.5;entryY=0;entryDx=0;entryDy=0;" parent="1" source="rMMRFrDlqJejkYLKrZz7-14" target="rMMRFrDlqJejkYLKrZz7-29" edge="1">
          <mxGeometry relative="1" as="geometry" />
        </mxCell>
        <mxCell id="rMMRFrDlqJejkYLKrZz7-35" style="edgeStyle=orthogonalEdgeStyle;rounded=0;orthogonalLoop=1;jettySize=auto;html=1;exitX=0.5;exitY=1;exitDx=0;exitDy=0;" parent="1" source="rMMRFrDlqJejkYLKrZz7-14" target="rMMRFrDlqJejkYLKrZz7-32" edge="1">
          <mxGeometry relative="1" as="geometry" />
        </mxCell>
        <mxCell id="rMMRFrDlqJejkYLKrZz7-39" style="edgeStyle=orthogonalEdgeStyle;rounded=0;orthogonalLoop=1;jettySize=auto;html=1;exitX=0.5;exitY=1;exitDx=0;exitDy=0;entryX=0.5;entryY=0;entryDx=0;entryDy=0;" parent="1" source="rMMRFrDlqJejkYLKrZz7-14" target="rMMRFrDlqJejkYLKrZz7-36" edge="1">
          <mxGeometry relative="1" as="geometry" />
        </mxCell>
        <mxCell id="rMMRFrDlqJejkYLKrZz7-44" style="edgeStyle=orthogonalEdgeStyle;rounded=0;orthogonalLoop=1;jettySize=auto;html=1;exitX=0.5;exitY=1;exitDx=0;exitDy=0;entryX=0.5;entryY=0;entryDx=0;entryDy=0;" parent="1" source="rMMRFrDlqJejkYLKrZz7-14" target="rMMRFrDlqJejkYLKrZz7-42" edge="1">
          <mxGeometry relative="1" as="geometry" />
        </mxCell>
        <mxCell id="rMMRFrDlqJejkYLKrZz7-48" style="edgeStyle=orthogonalEdgeStyle;rounded=0;orthogonalLoop=1;jettySize=auto;html=1;exitX=0.5;exitY=1;exitDx=0;exitDy=0;entryX=0.5;entryY=0;entryDx=0;entryDy=0;" parent="1" source="rMMRFrDlqJejkYLKrZz7-14" target="rMMRFrDlqJejkYLKrZz7-43" edge="1">
          <mxGeometry relative="1" as="geometry" />
        </mxCell>
        <mxCell id="rMMRFrDlqJejkYLKrZz7-14" value="Cadastros" style="rounded=0;whiteSpace=wrap;html=1;" parent="1" vertex="1">
          <mxGeometry x="440" y="270" width="70" height="40" as="geometry" />
        </mxCell>
        <mxCell id="rMMRFrDlqJejkYLKrZz7-15" value="Peças" style="rounded=0;whiteSpace=wrap;html=1;" parent="1" vertex="1">
          <mxGeometry x="360" y="270" width="70" height="40" as="geometry" />
        </mxCell>
        <mxCell id="rMMRFrDlqJejkYLKrZz7-20" value="Computador" style="rounded=0;whiteSpace=wrap;html=1;" parent="1" vertex="1">
          <mxGeometry x="280" y="270" width="70" height="40" as="geometry" />
        </mxCell>
        <mxCell id="rMMRFrDlqJejkYLKrZz7-22" value="Fornecedor" style="rounded=0;whiteSpace=wrap;html=1;" parent="1" vertex="1">
          <mxGeometry x="680" y="270" width="70" height="40" as="geometry" />
        </mxCell>
        <mxCell id="rMMRFrDlqJejkYLKrZz7-29" value="Categoria" style="rounded=0;whiteSpace=wrap;html=1;" parent="1" vertex="1">
          <mxGeometry x="344" y="360" width="56" height="40" as="geometry" />
        </mxCell>
        <mxCell id="rMMRFrDlqJejkYLKrZz7-32" value="Classificação" style="rounded=0;whiteSpace=wrap;html=1;" parent="1" vertex="1">
          <mxGeometry x="413.5" y="360" width="76" height="40" as="geometry" />
        </mxCell>
        <mxCell id="rMMRFrDlqJejkYLKrZz7-36" value="Modelo" style="rounded=0;whiteSpace=wrap;html=1;" parent="1" vertex="1">
          <mxGeometry x="500" y="360" width="56" height="40" as="geometry" />
        </mxCell>
        <mxCell id="rMMRFrDlqJejkYLKrZz7-42" value="Marca/&lt;br&gt;Fabricante" style="rounded=0;whiteSpace=wrap;html=1;" parent="1" vertex="1">
          <mxGeometry x="570" y="360" width="70" height="40" as="geometry" />
        </mxCell>
        <mxCell id="rMMRFrDlqJejkYLKrZz7-43" value="Categoria Peça" style="rounded=0;whiteSpace=wrap;html=1;" parent="1" vertex="1">
          <mxGeometry x="650" y="360" width="56" height="40" as="geometry" />
        </mxCell>
        <mxCell id="rMMRFrDlqJejkYLKrZz7-50" value="Jogos" style="rounded=0;whiteSpace=wrap;html=1;" parent="1" vertex="1">
          <mxGeometry x="170" y="280" width="70" height="40" as="geometry" />
        </mxCell>
        <mxCell id="rMMRFrDlqJejkYLKrZz7-51" value="Manutenção" style="rounded=0;whiteSpace=wrap;html=1;" parent="1" vertex="1">
          <mxGeometry x="90" y="280" width="70" height="40" as="geometry" />
        </mxCell>
        <mxCell id="rMMRFrDlqJejkYLKrZz7-80" style="edgeStyle=orthogonalEdgeStyle;rounded=0;orthogonalLoop=1;jettySize=auto;html=1;exitX=0.5;exitY=1;exitDx=0;exitDy=0;entryX=0.5;entryY=0;entryDx=0;entryDy=0;" parent="1" source="rMMRFrDlqJejkYLKrZz7-52" target="rMMRFrDlqJejkYLKrZz7-77" edge="1">
          <mxGeometry relative="1" as="geometry" />
        </mxCell>
        <mxCell id="rMMRFrDlqJejkYLKrZz7-84" style="edgeStyle=orthogonalEdgeStyle;rounded=0;orthogonalLoop=1;jettySize=auto;html=1;exitX=0.5;exitY=1;exitDx=0;exitDy=0;entryX=0.5;entryY=0;entryDx=0;entryDy=0;" parent="1" source="rMMRFrDlqJejkYLKrZz7-52" target="rMMRFrDlqJejkYLKrZz7-78" edge="1">
          <mxGeometry relative="1" as="geometry">
            <Array as="points">
              <mxPoint x="-35" y="390" />
              <mxPoint x="60" y="390" />
            </Array>
          </mxGeometry>
        </mxCell>
        <mxCell id="rMMRFrDlqJejkYLKrZz7-89" style="edgeStyle=orthogonalEdgeStyle;rounded=0;orthogonalLoop=1;jettySize=auto;html=1;exitX=0.5;exitY=1;exitDx=0;exitDy=0;entryX=0.6;entryY=0.067;entryDx=0;entryDy=0;entryPerimeter=0;" parent="1" source="rMMRFrDlqJejkYLKrZz7-52" target="rMMRFrDlqJejkYLKrZz7-79" edge="1">
          <mxGeometry relative="1" as="geometry">
            <Array as="points">
              <mxPoint x="-35" y="390" />
              <mxPoint x="22" y="390" />
            </Array>
          </mxGeometry>
        </mxCell>
        <mxCell id="rMMRFrDlqJejkYLKrZz7-52" value="Peças" style="rounded=0;whiteSpace=wrap;html=1;" parent="1" vertex="1">
          <mxGeometry x="-70" y="280" width="70" height="40" as="geometry" />
        </mxCell>
        <mxCell id="rMMRFrDlqJejkYLKrZz7-101" style="edgeStyle=orthogonalEdgeStyle;rounded=0;orthogonalLoop=1;jettySize=auto;html=1;exitX=0.5;exitY=1;exitDx=0;exitDy=0;" parent="1" source="rMMRFrDlqJejkYLKrZz7-53" target="rMMRFrDlqJejkYLKrZz7-98" edge="1">
          <mxGeometry relative="1" as="geometry">
            <Array as="points">
              <mxPoint x="-115" y="400" />
              <mxPoint x="-195" y="400" />
            </Array>
          </mxGeometry>
        </mxCell>
        <mxCell id="rMMRFrDlqJejkYLKrZz7-53" value="Computador" style="rounded=0;whiteSpace=wrap;html=1;" parent="1" vertex="1">
          <mxGeometry x="-150" y="280" width="70" height="40" as="geometry" />
        </mxCell>
        <mxCell id="rMMRFrDlqJejkYLKrZz7-56" value="Montagem" style="rounded=0;whiteSpace=wrap;html=1;" parent="1" vertex="1">
          <mxGeometry x="10" y="280" width="70" height="40" as="geometry" />
        </mxCell>
        <mxCell id="rMMRFrDlqJejkYLKrZz7-77" value="Visualizar" style="rounded=0;whiteSpace=wrap;html=1;" parent="1" vertex="1">
          <mxGeometry x="-70" y="430" width="70" height="30" as="geometry" />
        </mxCell>
        <mxCell id="rMMRFrDlqJejkYLKrZz7-78" value="Editar" style="rounded=0;whiteSpace=wrap;html=1;" parent="1" vertex="1">
          <mxGeometry x="40" y="430" width="40" height="30" as="geometry" />
        </mxCell>
        <mxCell id="rMMRFrDlqJejkYLKrZz7-79" value="Ativar/&lt;br&gt;Desativar&lt;br&gt;" style="rounded=0;whiteSpace=wrap;html=1;" parent="1" vertex="1">
          <mxGeometry x="-20" y="470" width="70" height="30" as="geometry" />
        </mxCell>
        <mxCell id="rMMRFrDlqJejkYLKrZz7-96" style="edgeStyle=orthogonalEdgeStyle;rounded=0;orthogonalLoop=1;jettySize=auto;html=1;exitX=0.5;exitY=1;exitDx=0;exitDy=0;entryX=0.5;entryY=0;entryDx=0;entryDy=0;" parent="1" source="rMMRFrDlqJejkYLKrZz7-53" target="rMMRFrDlqJejkYLKrZz7-99" edge="1">
          <mxGeometry relative="1" as="geometry">
            <mxPoint x="-195" y="330" as="sourcePoint" />
            <Array as="points">
              <mxPoint x="-115" y="400" />
              <mxPoint x="-100" y="400" />
            </Array>
          </mxGeometry>
        </mxCell>
        <mxCell id="rMMRFrDlqJejkYLKrZz7-97" style="edgeStyle=orthogonalEdgeStyle;rounded=0;orthogonalLoop=1;jettySize=auto;html=1;exitX=0.5;exitY=1;exitDx=0;exitDy=0;entryX=0.6;entryY=0.067;entryDx=0;entryDy=0;entryPerimeter=0;" parent="1" source="rMMRFrDlqJejkYLKrZz7-53" target="rMMRFrDlqJejkYLKrZz7-100" edge="1">
          <mxGeometry relative="1" as="geometry">
            <mxPoint x="-195" y="330" as="sourcePoint" />
            <Array as="points">
              <mxPoint x="-115" y="400" />
              <mxPoint x="-138" y="400" />
            </Array>
          </mxGeometry>
        </mxCell>
        <mxCell id="rMMRFrDlqJejkYLKrZz7-98" value="Visualizar" style="rounded=0;whiteSpace=wrap;html=1;" parent="1" vertex="1">
          <mxGeometry x="-230" y="440" width="70" height="30" as="geometry" />
        </mxCell>
        <mxCell id="rMMRFrDlqJejkYLKrZz7-99" value="Editar" style="rounded=0;whiteSpace=wrap;html=1;" parent="1" vertex="1">
          <mxGeometry x="-120" y="440" width="40" height="30" as="geometry" />
        </mxCell>
        <mxCell id="rMMRFrDlqJejkYLKrZz7-100" value="Ativar/&lt;br&gt;Desativar&lt;br&gt;" style="rounded=0;whiteSpace=wrap;html=1;" parent="1" vertex="1">
          <mxGeometry x="-180" y="480" width="70" height="30" as="geometry" />
        </mxCell>
        <mxCell id="rMMRFrDlqJejkYLKrZz7-102" style="edgeStyle=orthogonalEdgeStyle;rounded=0;orthogonalLoop=1;jettySize=auto;html=1;entryX=0.5;entryY=0;entryDx=0;entryDy=0;" parent="1" target="rMMRFrDlqJejkYLKrZz7-105" edge="1">
          <mxGeometry relative="1" as="geometry">
            <mxPoint x="230" y="400" as="sourcePoint" />
            <Array as="points">
              <mxPoint x="255" y="400" />
              <mxPoint x="270" y="400" />
            </Array>
          </mxGeometry>
        </mxCell>
        <mxCell id="rMMRFrDlqJejkYLKrZz7-103" style="edgeStyle=orthogonalEdgeStyle;rounded=0;orthogonalLoop=1;jettySize=auto;html=1;exitX=0.5;exitY=1;exitDx=0;exitDy=0;entryX=0.6;entryY=0.067;entryDx=0;entryDy=0;entryPerimeter=0;" parent="1" source="rMMRFrDlqJejkYLKrZz7-50" target="rMMRFrDlqJejkYLKrZz7-106" edge="1">
          <mxGeometry relative="1" as="geometry">
            <mxPoint x="255" y="320" as="sourcePoint" />
            <Array as="points">
              <mxPoint x="205" y="330" />
              <mxPoint x="232" y="330" />
            </Array>
          </mxGeometry>
        </mxCell>
        <mxCell id="rMMRFrDlqJejkYLKrZz7-104" value="Visualizar" style="rounded=0;whiteSpace=wrap;html=1;" parent="1" vertex="1">
          <mxGeometry x="140" y="440" width="70" height="30" as="geometry" />
        </mxCell>
        <mxCell id="rMMRFrDlqJejkYLKrZz7-105" value="Editar" style="rounded=0;whiteSpace=wrap;html=1;" parent="1" vertex="1">
          <mxGeometry x="250" y="440" width="40" height="30" as="geometry" />
        </mxCell>
        <mxCell id="rMMRFrDlqJejkYLKrZz7-106" value="Ativar/&lt;br&gt;Desativar&lt;br&gt;" style="rounded=0;whiteSpace=wrap;html=1;" parent="1" vertex="1">
          <mxGeometry x="190" y="480" width="70" height="30" as="geometry" />
        </mxCell>
        <mxCell id="rMMRFrDlqJejkYLKrZz7-110" value="" style="endArrow=classic;html=1;entryX=0.386;entryY=-0.033;entryDx=0;entryDy=0;entryPerimeter=0;rounded=0;" parent="1" target="rMMRFrDlqJejkYLKrZz7-104" edge="1">
          <mxGeometry width="50" height="50" relative="1" as="geometry">
            <mxPoint x="230" y="400" as="sourcePoint" />
            <mxPoint x="100" y="380" as="targetPoint" />
            <Array as="points">
              <mxPoint x="167" y="400" />
            </Array>
          </mxGeometry>
        </mxCell>
        <mxCell id="rMMRFrDlqJejkYLKrZz7-130" style="edgeStyle=orthogonalEdgeStyle;rounded=0;orthogonalLoop=1;jettySize=auto;html=1;exitX=0.5;exitY=1;exitDx=0;exitDy=0;entryX=0.6;entryY=0.067;entryDx=0;entryDy=0;entryPerimeter=0;" parent="1" source="rMMRFrDlqJejkYLKrZz7-51" target="rMMRFrDlqJejkYLKrZz7-133" edge="1">
          <mxGeometry relative="1" as="geometry">
            <mxPoint x="125" y="470" as="sourcePoint" />
            <Array as="points">
              <mxPoint x="125" y="480" />
              <mxPoint x="152" y="480" />
            </Array>
          </mxGeometry>
        </mxCell>
        <mxCell id="rMMRFrDlqJejkYLKrZz7-131" value="Visualizar" style="rounded=0;whiteSpace=wrap;html=1;" parent="1" vertex="1">
          <mxGeometry x="60" y="590" width="70" height="30" as="geometry" />
        </mxCell>
        <mxCell id="rMMRFrDlqJejkYLKrZz7-132" value="Editar" style="rounded=0;whiteSpace=wrap;html=1;" parent="1" vertex="1">
          <mxGeometry x="170" y="590" width="40" height="30" as="geometry" />
        </mxCell>
        <mxCell id="rMMRFrDlqJejkYLKrZz7-133" value="Ativar/&lt;br&gt;Desativar&lt;br&gt;" style="rounded=0;whiteSpace=wrap;html=1;" parent="1" vertex="1">
          <mxGeometry x="110" y="630" width="70" height="30" as="geometry" />
        </mxCell>
        <mxCell id="rMMRFrDlqJejkYLKrZz7-134" value="" style="endArrow=classic;html=1;entryX=0.386;entryY=-0.033;entryDx=0;entryDy=0;entryPerimeter=0;rounded=0;" parent="1" target="rMMRFrDlqJejkYLKrZz7-131" edge="1">
          <mxGeometry width="50" height="50" relative="1" as="geometry">
            <mxPoint x="150" y="550" as="sourcePoint" />
            <mxPoint x="20" y="530" as="targetPoint" />
            <Array as="points">
              <mxPoint x="87" y="550" />
            </Array>
          </mxGeometry>
        </mxCell>
        <mxCell id="rMMRFrDlqJejkYLKrZz7-135" value="" style="endArrow=classic;html=1;entryX=0.5;entryY=0;entryDx=0;entryDy=0;rounded=0;" parent="1" target="rMMRFrDlqJejkYLKrZz7-132" edge="1">
          <mxGeometry width="50" height="50" relative="1" as="geometry">
            <mxPoint x="150" y="550" as="sourcePoint" />
            <mxPoint x="260" y="570" as="targetPoint" />
            <Array as="points">
              <mxPoint x="190" y="550" />
            </Array>
          </mxGeometry>
        </mxCell>
        <mxCell id="rMMRFrDlqJejkYLKrZz7-144" style="edgeStyle=orthogonalEdgeStyle;rounded=0;orthogonalLoop=1;jettySize=auto;html=1;entryX=0.6;entryY=0.067;entryDx=0;entryDy=0;entryPerimeter=0;exitX=0.5;exitY=1;exitDx=0;exitDy=0;" parent="1" source="rMMRFrDlqJejkYLKrZz7-56" target="rMMRFrDlqJejkYLKrZz7-147" edge="1">
          <mxGeometry relative="1" as="geometry">
            <mxPoint y="370" as="sourcePoint" />
            <Array as="points">
              <mxPoint x="45" y="380" />
              <mxPoint x="100" y="380" />
              <mxPoint x="100" y="520" />
              <mxPoint x="-18" y="520" />
            </Array>
          </mxGeometry>
        </mxCell>
        <mxCell id="rMMRFrDlqJejkYLKrZz7-145" value="Visualizar" style="rounded=0;whiteSpace=wrap;html=1;" parent="1" vertex="1">
          <mxGeometry x="-110" y="590" width="70" height="30" as="geometry" />
        </mxCell>
        <mxCell id="rMMRFrDlqJejkYLKrZz7-146" value="Editar" style="rounded=0;whiteSpace=wrap;html=1;" parent="1" vertex="1">
          <mxGeometry y="590" width="40" height="30" as="geometry" />
        </mxCell>
        <mxCell id="rMMRFrDlqJejkYLKrZz7-147" value="Ativar/&lt;br&gt;Desativar&lt;br&gt;" style="rounded=0;whiteSpace=wrap;html=1;" parent="1" vertex="1">
          <mxGeometry x="-60" y="630" width="70" height="30" as="geometry" />
        </mxCell>
        <mxCell id="rMMRFrDlqJejkYLKrZz7-148" value="" style="endArrow=classic;html=1;entryX=0.386;entryY=-0.033;entryDx=0;entryDy=0;entryPerimeter=0;rounded=0;" parent="1" target="rMMRFrDlqJejkYLKrZz7-145" edge="1">
          <mxGeometry width="50" height="50" relative="1" as="geometry">
            <mxPoint x="-20" y="550" as="sourcePoint" />
            <mxPoint x="-150" y="530" as="targetPoint" />
            <Array as="points">
              <mxPoint x="-83" y="550" />
            </Array>
          </mxGeometry>
        </mxCell>
        <mxCell id="rMMRFrDlqJejkYLKrZz7-149" value="" style="endArrow=classic;html=1;entryX=0.5;entryY=0;entryDx=0;entryDy=0;rounded=0;" parent="1" target="rMMRFrDlqJejkYLKrZz7-146" edge="1">
          <mxGeometry width="50" height="50" relative="1" as="geometry">
            <mxPoint x="-20" y="550" as="sourcePoint" />
            <mxPoint x="90" y="570" as="targetPoint" />
            <Array as="points">
              <mxPoint x="20" y="550" />
            </Array>
          </mxGeometry>
        </mxCell>
        <mxCell id="6pK8oLAzssQNjTHqbSUo-6" style="edgeStyle=orthogonalEdgeStyle;rounded=0;orthogonalLoop=1;jettySize=auto;html=1;exitX=0.5;exitY=1;exitDx=0;exitDy=0;entryX=0.5;entryY=0;entryDx=0;entryDy=0;" edge="1" parent="1" source="6pK8oLAzssQNjTHqbSUo-1" target="6pK8oLAzssQNjTHqbSUo-5">
          <mxGeometry relative="1" as="geometry" />
        </mxCell>
        <mxCell id="6pK8oLAzssQNjTHqbSUo-8" style="edgeStyle=orthogonalEdgeStyle;rounded=0;orthogonalLoop=1;jettySize=auto;html=1;exitX=0.5;exitY=1;exitDx=0;exitDy=0;entryX=0.5;entryY=0;entryDx=0;entryDy=0;" edge="1" parent="1" source="6pK8oLAzssQNjTHqbSUo-1" target="6pK8oLAzssQNjTHqbSUo-7">
          <mxGeometry relative="1" as="geometry" />
        </mxCell>
        <mxCell id="6pK8oLAzssQNjTHqbSUo-1" value="Pedidos" style="rounded=0;whiteSpace=wrap;html=1;" vertex="1" parent="1">
          <mxGeometry x="740" y="180" width="120" height="40" as="geometry" />
        </mxCell>
        <mxCell id="6pK8oLAzssQNjTHqbSUo-5" value="Montagem" style="rounded=0;whiteSpace=wrap;html=1;" vertex="1" parent="1">
          <mxGeometry x="860" y="270" width="70" height="40" as="geometry" />
        </mxCell>
        <mxCell id="6pK8oLAzssQNjTHqbSUo-7" value="Manutenção" style="rounded=0;whiteSpace=wrap;html=1;" vertex="1" parent="1">
          <mxGeometry x="765" y="270" width="70" height="40" as="geometry" />
        </mxCell>
      </root>
    </mxGraphModel>
  </diagram>
</mxfile>
